ModelForces
version=1
nRows=4
nColumns=94
inDegrees=yes

This file contains the forces exerted on a model during a simulation.

A force is a generalized force, meaning that it can be either a force (N) or a torque (Nm).

Units are S.I. units (second, meters, Newtons, ...)
Angles are in degrees.

endheader 
time	addbrev_l	addlong_l	addmagDist_l	addmagIsch_l	addmagMid_l	addmagProx_l	bflh_l	bfsh_l	edl_l	ehl_l	fdl_l	fhl_l	gaslat_l	gasmed_l	glmax1_l	glmax2_l	glmax3_l	glmed1_l	glmed2_l	glmed3_l	glmin1_l	glmin2_l	glmin3_l	grac_l	iliacus_l	perbrev_l	perlong_l	piri_l	psoas_l	recfem_l	sart_l	semimem_l	semiten_l	soleus_l	tfl_l	tibant_l	tibpost_l	vasint_l	vaslat_l	vasmed_l	addbrev_r	addlong_r	addmagDist_r	addmagIsch_r	addmagMid_r	addmagProx_r	bflh_r	bfsh_r	edl_r	ehl_r	fdl_r	fhl_r	gaslat_r	gasmed_r	glmax1_r	glmax2_r	glmax3_r	glmed1_r	glmed2_r	glmed3_r	glmin1_r	glmin2_r	glmin3_r	grac_r	iliacus_r	perbrev_r	perlong_r	piri_r	psoas_r	recfem_r	sart_r	semimem_r	semiten_r	soleus_r	tfl_r	tibant_r	tibpost_r	vasint_r	vaslat_r	vasmed_r	lumbar_extension	lumbar_bending	lumbar_rotation	arm_flex_l	arm_add_l	arm_rot_l	arm_flex_r	arm_add_r	arm_rot_r	elbow_flex_l	elbow_flex_r	pro_sup_l	pro_sup_r	
          4.36000000	         38.12990589	        190.90309624	          9.05245153	          9.50429279	          9.00344731	         46.80853985	          0.09282817	         25.89167818	         48.39812388	          3.47544910	          3.77674582	          8.61584453	         86.72167954	         18.06623489	          7.88472628	         17.80947172	         11.29243350	         71.80869994	         14.26567029	         10.78995305	         17.23310975	          8.18502437	          2.24717257	          5.83801016	         99.74877276	         20.14025986	         47.08518150	          1.75851352	        217.60548938	        116.14701979	         33.97570709	         44.99111600	          9.38835673	         24.83657313	         10.95500538	        137.36669313	         11.33804651	         10.05703293	         29.60619356	         15.67969563	          7.70128978	         11.00473167	          6.08655853	          6.40898173	          5.55865358	          4.90682229	        220.41800685	         66.45019470	         30.52073619	          9.05599320	          4.11502815	          9.22661615	         37.21161084	         91.71499006	        106.72319932	        208.09733137	          8.34785769	        202.73065658	        122.91523503	        155.85181520	         24.38147855	         34.71939768	         36.11461789	          2.87175593	         47.21824168	         19.01648794	         68.93592220	        106.02824090	         25.12423116	         33.72286966	         36.27386151	        331.44485588	         70.56193606	         74.93557053	         24.13150540	        105.04839707	         10.61081550	         22.85560621	         66.59406901	         32.68454663	         49.35098210	         22.48215386	         69.41655602	        -39.78120007	         98.69803880	          0.05774602	         73.47835284	          9.55748641	         81.50928880	        -34.95435332	          1.36339710	          1.27456524	          0.61495333	
          4.37000000	         41.04429110	        155.61902594	          8.79085225	          9.06356157	          8.90161080	         73.23132935	        271.48917183	         92.47688065	         71.72931868	         18.36593074	          2.69936206	          6.31307286	         24.76509974	        187.64171301	          7.86089218	         14.86419724	         11.17384540	         60.04810008	         12.07715324	          9.26500500	         14.49212007	          7.05000057	          1.89179401	         25.19769525	         84.48513878	         23.57506953	         66.37034908	          1.86455604	        213.42100656	         85.00188178	         47.73400790	         41.97697823	          9.19754127	         17.47197835	          8.82615225	        203.62418957	          7.61034876	          7.40853781	         21.76775147	         11.73946431	          8.20968079	         11.95325294	          6.12475230	          6.19358635	          5.85699795	          5.21381172	        148.72447132	         55.84864795	         32.65001862	         16.07971167	          4.46355402	         11.98035627	         23.85612579	         65.21457969	         85.76452777	        166.28206416	          8.56486614	        166.13114107	         99.02077220	        122.54024489	         20.25189779	         28.17280500	         27.36166444	          3.34804421	         40.00657266	         22.66739917	         77.93108287	         71.12635169	         21.35724637	         33.22078591	         30.44549706	        332.64022229	         59.51896019	        113.50264043	         25.22049269	        118.18944352	         14.81888103	         22.61455434	         65.70779897	         32.38874324	         57.21294244	         17.72089621	         44.36466539	        -54.42036246	        111.28817358	         -1.48103978	         92.39041639	        -29.85893075	         98.16022606	        -40.76154577	        -33.32742897	          1.38004825	          1.84193358	
          4.38000000	         39.78920828	        119.81987345	          8.41918683	          8.51498246	          8.99392633	         95.78098440	        534.82227693	         89.86318591	         93.64544611	         17.35565490	          2.86572522	          5.38193223	         75.52461407	        207.41840965	          7.89353959	         12.48259083	         11.03823818	         51.20271504	         10.40936161	          8.12269353	         12.38452229	          6.23488318	          1.72693784	         28.06591034	         71.79907098	         34.61744528	         76.79130572	          2.06629224	        191.41144611	         66.53278557	         48.08047329	         42.53510515	          8.25454330	         13.93295422	          7.85900223	        253.74932203	          5.79763425	          6.99230908	         20.41726642	         11.09504256	          8.90046171	         12.94491528	         11.06345229	         11.29713438	          6.83944334	          5.78073839	        116.58739968	         46.48289310	         87.07683937	         14.08971588	          3.25839913	          8.69074258	         12.20726954	         94.47296382	         68.44592890	        131.99016261	         14.08900245	        128.82480676	         75.38009149	         93.99473995	         16.38181668	         22.06298889	         19.20228549	          8.28211548	         33.74299607	          0.01805726	        102.91715693	         45.43178347	         18.24304784	         32.41548673	         25.47864797	        276.55650283	         49.99366591	         85.20835630	         13.90298156	        134.65396518	          0.44111960	         22.32211429	         64.64410048	         32.02037282	         88.09638723	         25.31753198	         21.23232352	        -30.63198454	         64.65483583	         -4.11624525	        106.42431231	        -59.31627720	        110.52595761	        -21.39434061	        -35.26684203	         -0.00523849	          1.91141599	
          4.39000000	         41.40331542	        103.34323886	          8.07023133	          8.06914361	          8.10886016	         95.99344964	        840.74412720	        122.87521597	        113.39068758	         10.57602891	          1.46027735	          5.09153724	          2.24155577	        346.26517126	          8.05363030	         11.90376362	         10.68519986	         44.53249155	          9.22342286	          7.48044987	         10.66751782	          5.61022181	          1.75943241	         33.67952093	         59.37483413	         36.02458300	         49.70535233	          2.52282119	        216.56412203	         56.87841743	         51.59442073	         32.92976563	         36.47809288	         13.64235111	          6.84289608	        294.21651974	          5.16234963	          6.99716117	         20.32429552	         11.01603028	         15.11982088	         22.68244030	         10.03044832	          9.94123330	         10.87552080	          9.51733699	         94.65255623	         40.89299563	        118.90829108	         15.32346130	          3.68186486	          9.30274139	         13.00840380	          9.79374588	         54.58381939	        104.75052492	         11.88737603	        108.70935376	         63.19170645	         71.07949022	         13.06780327	         17.03706139	         13.15983789	          7.47901717	         28.58612757	        101.94578257	        134.95742167	         27.40694038	         14.60486349	         30.13244077	         21.32864566	        224.98987641	         43.25892822	          4.65728578	         18.70148460	        128.57733322	        109.43899121	         22.51156564	         64.05412447	         32.20109810	        122.16663697	         48.25793275	         20.91771173	         14.32956431	         11.26016222	         -2.35490074	        116.65406783	        -81.29164860	        119.81231671	          1.07049103	        -22.06302341	         -0.70324850	          0.74547334	
